<svg xmlns="http://www.w3.org/2000/svg" xmlns:xlink="http://www.w3.org/1999/xlink" width="121.063" height="50.321" viewBox="0 0 121.063 50.321">
  <defs>
    <linearGradient id="linear-gradient" x1="0.5" x2="0.5" y2="1" gradientUnits="objectBoundingBox">
      <stop offset="0" stop-color="#1a5ee0"/>
      <stop offset="0.063" stop-color="#245cd7"/>
      <stop offset="0.172" stop-color="#3f57c1"/>
      <stop offset="0.312" stop-color="#6c4f9d"/>
      <stop offset="0.477" stop-color="#a9446b"/>
      <stop offset="0.623" stop-color="#e63a3b"/>
      <stop offset="0.875" stop-color="#f27e31"/>
      <stop offset="1" stop-color="#f89c2e"/>
    </linearGradient>
  </defs>
  <path id="Path_4779" data-name="Path 4779" d="M1.192,0H11.7V-34.179h.867L15.167,0H27.083l2.6-34.179h.867V0H41.058V-49.833H23.942l-2.492,34.5H20.8l-2.492-34.5H1.192ZM61.967-40.3v-9.533H43.442V0H61.967V-9.533h-7.1V-20.367H61.8v-9.425H54.871V-40.3ZM64.35,0H74.858V-23.617l-.325-7.258h.65L79.842,0H94.2V-49.833H83.687v23.617l.325,7.258h-.7L78.65-49.833H64.35Zm57.9-49.833H110.825v38.946c0,1.408-.65,1.842-1.408,1.842-.812,0-1.408-.433-1.408-1.842V-49.833H96.579v39c0,8.45,5.037,11.321,12.837,11.321,7.746,0,12.837-2.871,12.837-11.321Z" transform="translate(-1.192 49.833)" fill="url(#linear-gradient)"/>
</svg>
