<svg xmlns="http://www.w3.org/2000/svg" xmlns:xlink="http://www.w3.org/1999/xlink" width="717.002" height="144.052" viewBox="0 0 717.002 144.052">
  <defs>
    <linearGradient id="linear-gradient" y1="0.5" x2="0.817" y2="0.914" gradientUnits="objectBoundingBox">
      <stop offset="0" stop-color="#1a5ee0"/>
      <stop offset="0.606" stop-color="#e63a3b"/>
      <stop offset="1" stop-color="#f89c2e"/>
    </linearGradient>
  </defs>
  <path id="Union_1" data-name="Union 1" d="M682.317,126.435a16.844,16.844,0,1,1,16.918,16.616A16.858,16.858,0,0,1,682.317,126.435ZM544.893,112.467q-.036-1-.036-2.044V31.572h0C544.857,8.006,558.9,0,580.657,0c21.6,0,35.8,8.006,35.8,31.571v21.9H584.584V31.722c0-2.77-.9-4.188-2.176-4.783l-.009,0h0l-.018-.008h0l-.042-.019h0l-.1-.044-.008,0-.057-.022-.032-.012-.034-.012h0a3.77,3.77,0,0,0-.5-.135h-.006l-.022,0-.028-.005q-.194-.036-.394-.056h-.007l-.041,0h0l-.134-.01-.081,0h0l-.117,0h-.211c-2.211.038-3.821,1.269-3.821,5.135v78.549c0,4.079,1.662,5.136,3.927,5.136,2.114,0,3.927-1.057,3.927-5.136v-21.9h31.874v22.055q0,1.042-.036,2.044c-.8,22.125-14.8,29.527-35.765,29.527C559.542,141.994,545.686,134.593,544.893,112.467ZM623.1,140.333V1.36h51.661V27.946H654.977V57.251h19.335V83.535H654.977v30.211h19.788v26.587H623.1Zm-124.922,0L485.19,54.23h-1.812l.906,20.241v65.861h-29.3V1.36h39.879l12.991,86.1h1.964l-.907-20.242V1.36h29.305V140.332h-40.03Zm-101.509,0V1.36h51.661V27.946H428.545V57.251H447.88V83.535H428.545v30.211h19.788v26.587Zm-174.772,0V1.36h51.662V27.946H253.774V57.251h19.335V83.535H253.774v30.211h19.788v26.587H221.9Zm136.253,0V1.36h31.873V140.332Zm-32.175,0-9.516-38.822h-4.381v38.822H280.208V1.36h42.749c23.565,0,28.4,8.459,28.4,31.571h0V71.9c0,10.423-3.474,17.523-9.064,22.054l12.236,46.374Zm-13.9-63.142,4.683-.151c2.634-.292,3.425-1.719,3.472-4.829q0-.15,0-.306V33.233c0-3.927-1.057-5.438-4.834-5.438h-3.323ZM143.2,140.332V1.36h42.749c23.565,0,28.4,8.459,28.4,31.571V81.571c0,23.112-4.834,31.571-28.4,31.571H175.073v27.19Zm31.873-53.625H178.4c3.777,0,4.834-1.511,4.834-5.438V33.233c0-3.927-1.057-5.438-4.834-5.438h-3.324Zm-69.334,53.625-7.4-46.374H96.373l-7.251,46.374H57.854L73.412,69.789,58.458,1.36H89.727l.865,5.781,5.781,38.63h1.964l6.8-44.411H136.4L121.449,69.789l15.559,70.544ZM0,140.332V1.36H51.662V27.946H31.873V57.251H51.208V83.535H31.873v30.211H51.662v26.586Z" transform="translate(0.5 0.5)" stroke="rgba(0,0,0,0)" stroke-width="1" fill="url(#linear-gradient)"/>
</svg>
