<svg xmlns="http://www.w3.org/2000/svg" xmlns:xlink="http://www.w3.org/1999/xlink" width="224.875" height="117.25" viewBox="0 0 224.875 117.25">
  <defs>
    <linearGradient id="linear-gradient" x1="0.5" x2="0.5" y2="1" gradientUnits="objectBoundingBox">
      <stop offset="0" stop-color="#1a5ee0"/>
      <stop offset="0.063" stop-color="#245cd7"/>
      <stop offset="0.172" stop-color="#3f57c1"/>
      <stop offset="0.312" stop-color="#6c4f9d"/>
      <stop offset="0.477" stop-color="#a9446b"/>
      <stop offset="0.623" stop-color="#e63a3b"/>
      <stop offset="0.875" stop-color="#f27e31"/>
      <stop offset="1" stop-color="#f89c2e"/>
    </linearGradient>
  </defs>
  <path id="Path_4767" data-name="Path 4767" d="M-86.063-22v-93h-26.375V0h44.625V-22Zm52.625-94.125c-18,0-29.625,6.625-29.625,26.125v65c0,19.5,11.625,26.125,29.625,26.125C-15.563,1.125-3.813-5.5-3.813-25V-90C-3.813-109.5-15.563-116.125-33.438-116.125Zm3.25,26.25v64.75c0,3.25-1.5,4.25-3.25,4.25-1.875,0-3.25-1-3.25-4.25v-64.75c0-3.25,1.375-4.25,3.25-4.25C-31.688-94.125-30.188-93.125-30.188-89.875ZM-1.063-115,9.437,0H54.812L65.187-115H39.812L33.187-23.875H31.062L24.437-115Zm113.5,22v-22H69.688V0h42.75V-22H96.062V-47h16V-68.75h-16V-93Z" transform="translate(112.438 116.125)" fill="url(#linear-gradient)"/>
</svg>
